<?xml version="1.0" encoding="UTF-8" standalone="no"?>
<!DOCTYPE svg PUBLIC "-//W3C//DTD SVG 1.1//EN"
 "http://www.w3.org/Graphics/SVG/1.1/DTD/svg11.dtd">
<!-- Generated by graphviz version 2.38.0 (20140413.2041)
 -->
<!-- Title: MGG Pages: 1 -->
<svg width="1480pt" height="260pt"
 viewBox="0.00 0.00 1479.50 260.00" xmlns="http://www.w3.org/2000/svg" xmlns:xlink="http://www.w3.org/1999/xlink">
<g id="graph0" class="graph" transform="scale(1 1) rotate(0) translate(4 256)">
<title>MGG</title>
<polygon fill="white" stroke="none" points="-4,4 -4,-256 1475.5,-256 1475.5,4 -4,4"/>
<!-- 1 -->
<g id="node1" class="node"><title>1</title>
<path fill="#d4c9fc" stroke="black" d="M829.5,-252C829.5,-252 776.5,-252 776.5,-252 770.5,-252 764.5,-246 764.5,-240 764.5,-240 764.5,-228 764.5,-228 764.5,-222 770.5,-216 776.5,-216 776.5,-216 829.5,-216 829.5,-216 835.5,-216 841.5,-222 841.5,-228 841.5,-228 841.5,-240 841.5,-240 841.5,-246 835.5,-252 829.5,-252"/>
<text text-anchor="middle" x="803" y="-230.3" font-family="Times New Roman,serif" font-size="14.00">DSG2&#45;201</text>
</g>
<!-- 2 -->
<g id="node2" class="node"><title>2</title>
<polygon fill="white" stroke="black" stroke-width="0.5" points="677.5,-144 711,-144 711,-180 677.5,-180 677.5,-144"/>
<polygon fill="#58d863" stroke="black" stroke-width="0.5" points="711,-144 744.5,-144 744.5,-180 711,-180 711,-144"/>
<polygon fill="none" stroke="black" points="744.5,-180 677.5,-180 677.5,-144 744.5,-144 744.5,-180"/>
<text text-anchor="middle" x="711" y="-158.3" font-family="Times New Roman,serif" font-size="14.00">Cadherin</text>
</g>
<!-- 1&#45;&gt;2 -->
<g id="edge1" class="edge"><title>1&#45;&gt;2</title>
<path fill="none" stroke="black" d="M780.258,-215.697C768.56,-206.796 754.139,-195.823 741.49,-186.199"/>
<polygon fill="black" stroke="black" points="743.558,-183.374 733.48,-180.104 739.319,-188.945 743.558,-183.374"/>
</g>
<!-- 11 -->
<g id="node3" class="node"><title>11</title>
<polygon fill="#58d863" stroke="black" stroke-width="0.5" points="955,-144 997,-144 997,-180 955,-180 955,-144"/>
<polygon fill="#58d863" stroke="black" stroke-width="0.5" points="997,-144 1039,-144 1039,-180 997,-180 997,-144"/>
<polygon fill="none" stroke="black" points="1039,-180 955,-180 955,-144 1039,-144 1039,-180"/>
<text text-anchor="middle" x="997" y="-158.3" font-family="Times New Roman,serif" font-size="14.00">Cadherin_C</text>
</g>
<!-- 1&#45;&gt;11 -->
<g id="edge2" class="edge"><title>1&#45;&gt;11</title>
<path fill="none" stroke="black" d="M841.793,-219.003C871.454,-208.3 912.639,-193.44 945.13,-181.716"/>
<polygon fill="black" stroke="black" points="946.694,-184.873 954.912,-178.186 944.318,-178.288 946.694,-184.873"/>
</g>
<!-- 18 -->
<g id="node4" class="node"><title>18</title>
<polygon fill="#91dfff" stroke="black" stroke-width="0.5" points="762.5,-144 803,-144 803,-180 762.5,-180 762.5,-144"/>
<polygon fill="white" stroke="black" stroke-width="0.5" points="803,-144 843.5,-144 843.5,-180 803,-180 803,-144"/>
<polygon fill="none" stroke="black" points="843.5,-180 762.5,-180 762.5,-144 843.5,-144 843.5,-180"/>
<text text-anchor="middle" x="803" y="-158.3" font-family="Times New Roman,serif" font-size="14.00">Cadherin_2</text>
</g>
<!-- 1&#45;&gt;18 -->
<g id="edge3" class="edge"><title>1&#45;&gt;18</title>
<path fill="none" stroke="black" d="M803,-215.697C803,-207.983 803,-198.712 803,-190.112"/>
<polygon fill="black" stroke="black" points="806.5,-190.104 803,-180.104 799.5,-190.104 806.5,-190.104"/>
</g>
<!-- 3 -->
<g id="node5" class="node"><title>3</title>
<polygon fill="lightgray" stroke="black" points="377,-108 323,-108 323,-72 377,-72 377,-108"/>
<text text-anchor="middle" x="350" y="-86.3" font-family="Times New Roman,serif" font-size="14.00">V&#45;set</text>
</g>
<!-- 2&#45;&gt;3 -->
<g id="edge4" class="edge"><title>2&#45;&gt;3</title>
<path fill="none" stroke="black" d="M677.362,-154.477C609.768,-141.37 457.906,-111.924 387.347,-98.2419"/>
<polygon fill="black" stroke="black" points="387.63,-94.7315 377.146,-96.2638 386.297,-101.604 387.63,-94.7315"/>
</g>
<!-- 15 -->
<g id="node6" class="node"><title>15</title>
<polygon fill="lightgray" stroke="black" points="751.5,-108 670.5,-108 670.5,-72 751.5,-72 751.5,-108"/>
<text text-anchor="middle" x="711" y="-86.3" font-family="Times New Roman,serif" font-size="14.00">Cadherin_2</text>
</g>
<!-- 2&#45;&gt;15 -->
<g id="edge5" class="edge"><title>2&#45;&gt;15</title>
<path fill="none" stroke="black" d="M711,-143.697C711,-135.983 711,-126.712 711,-118.112"/>
<polygon fill="black" stroke="black" points="714.5,-118.104 711,-108.104 707.5,-118.104 714.5,-118.104"/>
</g>
<!-- 17 -->
<g id="node7" class="node"><title>17</title>
<polygon fill="lightgray" stroke="black" points="836.5,-108 769.5,-108 769.5,-72 836.5,-72 836.5,-108"/>
<text text-anchor="middle" x="803" y="-86.3" font-family="Times New Roman,serif" font-size="14.00">Cadherin</text>
</g>
<!-- 2&#45;&gt;17 -->
<g id="edge6" class="edge"><title>2&#45;&gt;17</title>
<path fill="none" stroke="black" d="M733.742,-143.697C745.44,-134.796 759.861,-123.823 772.51,-114.199"/>
<polygon fill="black" stroke="black" points="774.681,-116.945 780.52,-108.104 770.442,-111.374 774.681,-116.945"/>
</g>
<!-- 12 -->
<g id="node8" class="node"><title>12</title>
<polygon fill="lightgray" stroke="black" points="1170,-108 1116,-108 1116,-72 1170,-72 1170,-108"/>
<text text-anchor="middle" x="1143" y="-86.3" font-family="Times New Roman,serif" font-size="14.00">Arm</text>
</g>
<!-- 11&#45;&gt;12 -->
<g id="edge7" class="edge"><title>11&#45;&gt;12</title>
<path fill="none" stroke="black" d="M1032.72,-143.876C1055.17,-133.11 1084.06,-119.258 1106.64,-108.433"/>
<polygon fill="black" stroke="black" points="1108.39,-111.477 1115.89,-103.997 1105.36,-105.165 1108.39,-111.477"/>
</g>
<!-- 18&#45;&gt;17 -->
<g id="edge8" class="edge"><title>18&#45;&gt;17</title>
<path fill="none" stroke="black" d="M803,-143.697C803,-135.983 803,-126.712 803,-118.112"/>
<polygon fill="black" stroke="black" points="806.5,-118.104 803,-108.104 799.5,-118.104 806.5,-118.104"/>
</g>
<!-- 44 -->
<g id="node9" class="node"><title>44</title>
<path fill="#afcbd6" stroke="black" d="M452,-36C452,-36 248,-36 248,-36 242,-36 236,-30 236,-24 236,-24 236,-12 236,-12 236,-6 242,-0 248,-0 248,-0 452,-0 452,-0 458,-0 464,-6 464,-12 464,-12 464,-24 464,-24 464,-30 458,-36 452,-36"/>
<text text-anchor="middle" x="350" y="-14.3" font-family="Times New Roman,serif" font-size="14.00">OBSL1&#45;201,202,203,204,205,214,215</text>
</g>
<!-- 3&#45;&gt;44 -->
<g id="edge9" class="edge"><title>3&#45;&gt;44</title>
<path fill="none" stroke="black" d="M350,-71.6966C350,-63.9827 350,-54.7125 350,-46.1124"/>
<polygon fill="black" stroke="black" points="353.5,-46.1043 350,-36.1043 346.5,-46.1044 353.5,-46.1043"/>
</g>
<!-- 49 -->
<g id="node10" class="node"><title>49</title>
<path fill="#afcbd6" stroke="black" d="M206,-36C206,-36 12,-36 12,-36 6,-36 0,-30 0,-24 0,-24 0,-12 0,-12 0,-6 6,-0 12,-0 12,-0 206,-0 206,-0 212,-0 218,-6 218,-12 218,-12 218,-24 218,-24 218,-30 212,-36 206,-36"/>
<text text-anchor="middle" x="109" y="-14.3" font-family="Times New Roman,serif" font-size="14.00">PDGFRA&#45;201,203,204,208,209,210</text>
</g>
<!-- 3&#45;&gt;49 -->
<g id="edge10" class="edge"><title>3&#45;&gt;49</title>
<path fill="none" stroke="black" d="M322.823,-81.1062C287.812,-70.9371 225.72,-52.9021 177.436,-38.8776"/>
<polygon fill="black" stroke="black" points="178.246,-35.4683 167.666,-36.04 176.293,-42.1905 178.246,-35.4683"/>
</g>
<!-- 46 -->
<g id="node14" class="node"><title>46</title>
<path fill="#afcbd6" stroke="black" d="M570,-36C570,-36 494,-36 494,-36 488,-36 482,-30 482,-24 482,-24 482,-12 482,-12 482,-6 488,-0 494,-0 494,-0 570,-0 570,-0 576,-0 582,-6 582,-12 582,-12 582,-24 582,-24 582,-30 576,-36 570,-36"/>
<text text-anchor="middle" x="532" y="-14.3" font-family="Times New Roman,serif" font-size="14.00">DSC1&#45;201,202</text>
</g>
<!-- 15&#45;&gt;46 -->
<g id="edge14" class="edge"><title>15&#45;&gt;46</title>
<path fill="none" stroke="black" d="M670.382,-73.1159C645.1,-63.2291 612.311,-50.4066 584.996,-39.7249"/>
<polygon fill="black" stroke="black" points="586.172,-36.4267 575.584,-36.0442 583.623,-42.9459 586.172,-36.4267"/>
</g>
<!-- 48 -->
<g id="node15" class="node"><title>48</title>
<path fill="#afcbd6" stroke="black" d="M809.5,-36C809.5,-36 612.5,-36 612.5,-36 606.5,-36 600.5,-30 600.5,-24 600.5,-24 600.5,-12 600.5,-12 600.5,-6 606.5,-0 612.5,-0 612.5,-0 809.5,-0 809.5,-0 815.5,-0 821.5,-6 821.5,-12 821.5,-12 821.5,-24 821.5,-24 821.5,-30 815.5,-36 809.5,-36"/>
<text text-anchor="middle" x="711" y="-14.3" font-family="Times New Roman,serif" font-size="14.00">CDH1&#45;201,202,203,210,212,213,214</text>
</g>
<!-- 15&#45;&gt;48 -->
<g id="edge15" class="edge"><title>15&#45;&gt;48</title>
<path fill="none" stroke="black" d="M711,-71.6966C711,-63.9827 711,-54.7125 711,-46.1124"/>
<polygon fill="black" stroke="black" points="714.5,-46.1043 711,-36.1043 707.5,-46.1044 714.5,-46.1043"/>
</g>
<!-- 50 -->
<g id="node16" class="node"><title>50</title>
<path fill="#afcbd6" stroke="black" d="M928,-36C928,-36 852,-36 852,-36 846,-36 840,-30 840,-24 840,-24 840,-12 840,-12 840,-6 846,-0 852,-0 852,-0 928,-0 928,-0 934,-0 940,-6 940,-12 940,-12 940,-24 940,-24 940,-30 934,-36 928,-36"/>
<text text-anchor="middle" x="890" y="-14.3" font-family="Times New Roman,serif" font-size="14.00">DSC2&#45;201,202</text>
</g>
<!-- 15&#45;&gt;50 -->
<g id="edge16" class="edge"><title>15&#45;&gt;50</title>
<path fill="none" stroke="black" d="M751.618,-73.1159C776.9,-63.2291 809.689,-50.4066 837.004,-39.7249"/>
<polygon fill="black" stroke="black" points="838.377,-42.9459 846.416,-36.0442 835.828,-36.4267 838.377,-42.9459"/>
</g>
<!-- 17&#45;&gt;46 -->
<g id="edge18" class="edge"><title>17&#45;&gt;46</title>
<path fill="none" stroke="black" d="M769.387,-75.0974C766.237,-73.981 763.074,-72.928 760,-72 689.496,-50.7159 667.309,-54.2917 592.096,-36.1595"/>
<polygon fill="black" stroke="black" points="592.694,-32.7021 582.147,-33.7102 591.02,-39.4992 592.694,-32.7021"/>
</g>
<!-- 17&#45;&gt;48 -->
<g id="edge19" class="edge"><title>17&#45;&gt;48</title>
<path fill="none" stroke="black" d="M780.258,-71.6966C768.56,-62.796 754.139,-51.8232 741.49,-42.1989"/>
<polygon fill="black" stroke="black" points="743.558,-39.3742 733.48,-36.1043 739.319,-44.945 743.558,-39.3742"/>
</g>
<!-- 17&#45;&gt;50 -->
<g id="edge20" class="edge"><title>17&#45;&gt;50</title>
<path fill="none" stroke="black" d="M824.506,-71.6966C835.463,-62.8807 848.946,-52.0321 860.825,-42.4742"/>
<polygon fill="black" stroke="black" points="863.145,-45.1001 868.742,-36.1043 858.756,-39.6462 863.145,-45.1001"/>
</g>
<!-- 32 -->
<g id="node17" class="node"><title>32</title>
<path fill="#afcbd6" stroke="black" d="M1023.5,-36C1023.5,-36 970.5,-36 970.5,-36 964.5,-36 958.5,-30 958.5,-24 958.5,-24 958.5,-12 958.5,-12 958.5,-6 964.5,-0 970.5,-0 970.5,-0 1023.5,-0 1023.5,-0 1029.5,-0 1035.5,-6 1035.5,-12 1035.5,-12 1035.5,-24 1035.5,-24 1035.5,-30 1029.5,-36 1023.5,-36"/>
<text text-anchor="middle" x="997" y="-14.3" font-family="Times New Roman,serif" font-size="14.00">CDH1&#45;209</text>
</g>
<!-- 17&#45;&gt;32 -->
<g id="edge17" class="edge"><title>17&#45;&gt;32</title>
<path fill="none" stroke="black" d="M836.792,-76.8069C867.752,-65.6359 913.928,-48.9746 948.763,-36.4051"/>
<polygon fill="black" stroke="black" points="950.047,-39.6627 958.266,-32.9763 947.671,-33.0782 950.047,-39.6627"/>
</g>
<!-- 41 -->
<g id="node11" class="node"><title>41</title>
<path fill="#afcbd6" stroke="black" d="M1116,-36C1116,-36 1066,-36 1066,-36 1060,-36 1054,-30 1054,-24 1054,-24 1054,-12 1054,-12 1054,-6 1060,-0 1066,-0 1066,-0 1116,-0 1116,-0 1122,-0 1128,-6 1128,-12 1128,-12 1128,-24 1128,-24 1128,-30 1122,-36 1116,-36"/>
<text text-anchor="middle" x="1091" y="-14.3" font-family="Times New Roman,serif" font-size="14.00">PKP3&#45;201</text>
</g>
<!-- 12&#45;&gt;41 -->
<g id="edge11" class="edge"><title>12&#45;&gt;41</title>
<path fill="none" stroke="black" d="M1130.15,-71.6966C1123.97,-63.3893 1116.46,-53.2771 1109.68,-44.1407"/>
<polygon fill="black" stroke="black" points="1112.48,-42.0446 1103.71,-36.1043 1106.86,-46.2189 1112.48,-42.0446"/>
</g>
<!-- 45 -->
<g id="node12" class="node"><title>45</title>
<path fill="#afcbd6" stroke="black" d="M1232,-36C1232,-36 1158,-36 1158,-36 1152,-36 1146,-30 1146,-24 1146,-24 1146,-12 1146,-12 1146,-6 1152,-0 1158,-0 1158,-0 1232,-0 1232,-0 1238,-0 1244,-6 1244,-12 1244,-12 1244,-24 1244,-24 1244,-30 1238,-36 1232,-36"/>
<text text-anchor="middle" x="1195" y="-14.3" font-family="Times New Roman,serif" font-size="14.00">PKP2&#45;201,202</text>
</g>
<!-- 12&#45;&gt;45 -->
<g id="edge12" class="edge"><title>12&#45;&gt;45</title>
<path fill="none" stroke="black" d="M1155.85,-71.6966C1162.03,-63.3893 1169.54,-53.2771 1176.32,-44.1407"/>
<polygon fill="black" stroke="black" points="1179.14,-46.2189 1182.29,-36.1043 1173.52,-42.0446 1179.14,-46.2189"/>
</g>
<!-- 47 -->
<g id="node13" class="node"><title>47</title>
<path fill="#afcbd6" stroke="black" d="M1459.5,-36C1459.5,-36 1274.5,-36 1274.5,-36 1268.5,-36 1262.5,-30 1262.5,-24 1262.5,-24 1262.5,-12 1262.5,-12 1262.5,-6 1268.5,-0 1274.5,-0 1274.5,-0 1459.5,-0 1459.5,-0 1465.5,-0 1471.5,-6 1471.5,-12 1471.5,-12 1471.5,-24 1471.5,-24 1471.5,-30 1465.5,-36 1459.5,-36"/>
<text text-anchor="middle" x="1367" y="-14.3" font-family="Times New Roman,serif" font-size="14.00">JUP&#45;201,202,203,204,205,206,208</text>
</g>
<!-- 12&#45;&gt;47 -->
<g id="edge13" class="edge"><title>12&#45;&gt;47</title>
<path fill="none" stroke="black" d="M1170.02,-80.5564C1202.69,-70.3469 1258.76,-52.8239 1302.75,-39.0786"/>
<polygon fill="black" stroke="black" points="1304,-42.353 1312.51,-36.0295 1301.92,-35.6717 1304,-42.353"/>
</g>
</g>
</svg>
